<?xml version="1.0" encoding="UTF-8" standalone="no"?>
<!-- Generator: Adobe Illustrator 13.0.0, SVG Export Plug-In . SVG Version: 6.00 Build 14948)  -->
<svg xmlns:dc="http://purl.org/dc/elements/1.1/" xmlns:cc="http://creativecommons.org/ns#" xmlns:rdf="http://www.w3.org/1999/02/22-rdf-syntax-ns#" xmlns:svg="http://www.w3.org/2000/svg" xmlns="http://www.w3.org/2000/svg" xmlns:sodipodi="http://sodipodi.sourceforge.net/DTD/sodipodi-0.dtd" xmlns:inkscape="http://www.inkscape.org/namespaces/inkscape" version="1.1" x="0px" y="0px" width="568.6875" height="568.65601" viewBox="0 0 568.68749 568.65601" enable-background="new 0 0 575.898 551.667" xml:space="preserve" id="svg2" inkscape:version="0.48.3.1 r9886" sodipodi:docname="Ml_logo_vector.svg"><metadata id="metadata77"><rdf:RDF><cc:Work rdf:about=""><dc:format>image/svg+xml</dc:format><dc:type rdf:resource="http://purl.org/dc/dcmitype/StillImage"/></cc:Work></rdf:RDF></metadata><defs id="defs75">
	
	

	
	
	
	
	
	
	
	
	
	
	
	

	
	
	
	
	

	
	
	
	
	
	

	
	

		
		
		
		
		
	</defs><sodipodi:namedview pagecolor="#ffffff" bordercolor="#666666" borderopacity="1" objecttolerance="10" gridtolerance="10" guidetolerance="10" inkscape:pageopacity="0" inkscape:pageshadow="2" inkscape:window-width="1059" inkscape:window-height="908" id="namedview73" showgrid="false" units="in" fit-margin-top="0.1" fit-margin-left="0.1" fit-margin-bottom="0.1" fit-margin-right="0.1" inkscape:zoom="0.85558862" inkscape:cx="229.29808" inkscape:cy="186.4179" inkscape:window-x="57" inkscape:window-y="24" inkscape:window-maximized="0" inkscape:current-layer="svg2"/>



<path style="font-size:medium;font-style:normal;font-variant:normal;font-weight:normal;font-stretch:normal;text-indent:0;text-align:start;text-decoration:none;line-height:normal;letter-spacing:normal;word-spacing:normal;text-transform:none;direction:ltr;block-progression:tb;writing-mode:lr-tb;text-anchor:start;baseline-shift:baseline;color:#000000;fill:#000000;fill-opacity:1;stroke:none;stroke-width:3;marker:none;visibility:visible;display:inline;overflow:visible;enable-background:accumulate;font-family:Sans;-inkscape-font-specification:Sans" d="m 266.06249,9.0030001 -13.34375,19.1560009 -5.65625,38.5 0,0.06 c -14.04177,2.321 -27.65354,5.919 -40.6875,10.718 l -22.84375,-29.593 -21.90625,-9.594 -31.90625,18.125 -2.15625,23.25 13.6875,35.249999 c -10.82479,8.924 -20.79724,18.851 -29.78125,29.625 l -34.124999,-13.906 -23.75,2.718 -18.5,31.688 9.84375,21.219 28.8125,22.968 c -5.176901,13.773 -9.042723,28.188 -11.4375,43.094 l -34.125,4.844 -19.1875001,14.281 0,36.688 19.1875001,13.375 34.5625,5.062 c 2.459207,14.278 6.260722,28.093 11.28125,41.313 l -26.1875,20.937 -9.21875,22.063 18.65625,31.593 23.28125,1.782 30.749999,-12.563 c 9.66074,11.611 20.46581,22.231 32.25,31.688 l -12.03125,30.843 3.03125,23.719 31.96875,18.031 21.0625,-10.125 20.375,-26.343 c 12.92753,4.648 26.40928,8.155 40.3125,10.375 l 4.34375,30.656 14.3125,19.156 36.6875,0 13.375,-19.156 4.53125,-30.969 c 13.39672,-2.258 26.39606,-5.731 38.875,-10.25 l 20.03125,25.938 21.875,9.593 31.9375,-18.093 2.15625,-23.282 -11.8125,-30.312 c 11.64293,-9.371 22.34188,-19.865 31.90625,-31.344 l 30.96875,12.594 23.75,-2.688 18.5,-31.718 -9.84375,-21.188 L 493.84374,368 c 5.04086,-13.245 8.84389,-27.097 11.3125,-41.406 l 35.34375,-5.032 19.1875,-14.312 0,-36.688 -19.1875,-13.375 -34.9375,-5.093 c -2.53937,-15.721 -6.71899,-30.896 -12.34375,-45.344 l 28.625,-22.875 9.21875,-22.063 -18.65625,-31.593 -23.28125,-1.782 -34.375,14.032 c -8.78705,-10.29 -18.51128,-19.756 -29,-28.313 l 13.53125,-34.593999 -3.0625,-23.718 -31.9375,-18.032 -21.0625,10.125 -22.5625,29.157 c -12.24014,-4.449 -24.99756,-7.82 -38.125,-10.094 l 0,-0.344 -5.46875,-38.5 -14.28125,-19.1560009 -36.71875,0 z M 165.03124,125.503 c 10.56825,-0.01 30.19713,1.79 42.53125,14 9.02517,8.934 14.95822,17.453 17.71875,26.469 2.76053,9.016 2.39777,18.607 -1.46875,29.906 l -0.3125,0.906 0.6875,0.656 30.125,29.657 -12.84375,14.937 26.625,12.5 6,-7.969 4.59375,4.532 -4.71875,6.156 20.5,11.094 0.90625,12.187 6.15625,-6.937 5.53125,5.437 -16.4375,26.125 22.90625,14.25 15.3125,-18.937 3.9375,3.875 -13.21875,15.5 12.53125,15.125 16.03125,-15.469 4.375,4.281 0.0312,0.06 0.0625,0.03 c 0,0 6.37267,5.261 10.71875,12.375 2.17304,3.557 3.81724,7.539 3.96875,11.469 0.15151,3.93 -1.0606,7.81 -4.875,11.625 -3.83235,3.832 -7.89882,5.369 -11.96875,5.593 -4.06993,0.225 -8.16441,-0.915 -11.84375,-2.562 -1.7581,-0.787 -3.41129,-1.677 -4.90625,-2.594 l -2,-7.094 -24.25,-15.218 -62.1562,-55.469 2.5625,-7.094 15.96875,16.406 27.65625,-8.625 -0.625,-12.812 -55.96875,-26.094 -12.09375,18.125 -32.6875,-29.156 -0.6875,-0.594 -0.84375,0.313 c 0,0 -35.47121,13.063 -57.125,-8.375 -11.14616,-11.035 -17.01245,-19.225 -19.90625,-27.407 -2.60953,-7.377 -2.79006,-14.985 -2.125,-24.781 l 43.21875,40.563 0.625,0.593 0.8125,-0.25 35.625,-10.5 0.78125,-0.218 0.21875,-0.813 10.5,-35.719 0.25,-0.843 -0.65625,-0.657 -39.75,-38.406 c 0.84007,-0.05 0.75678,-0.1 2,-0.125 0.61905,-0.01 1.29545,-0.03 2,-0.03 z m 3.28125,17.531 23.6875,21.5 -6.75,31.25 -30.46875,9.781 -23.6875,-21.468 6.75,-31.282 30.46875,-9.781 z m 257,2 23.6875,21.5 -6.75,31.25 -30.46875,9.781 -23.6875,-21.468 6.75,-31.282 30.46875,-9.781 z m -142.6875,19.875 c 68.39108,0 123.84375,55.453 123.84375,123.844 0,51.101 -30.97328,94.987 -75.15625,113.906 l 0.375,-12.344 7.78125,-9.937 -4.625,-16.5 c 0.81,0.428 1.6314,0.861 2.5,1.25 3.97228,1.778 8.52665,3.042 13.25,2.781 4.72335,-0.26 9.5931,-2.124 13.90625,-6.437 4.3311,-4.331 5.96115,-9.209 5.78125,-13.875 -0.1799,-4.667 -2.06467,-9.074 -4.40625,-12.907 -4.62565,-7.571 -11.11967,-12.899 -11.28125,-13.031 l -0.0937,-0.09 -4.21875,-4.157 19,-18.312 -14.6875,-20.313 -19.875,23.313 -4,-3.938 15.65625,-19.375 1.28125,-8.218 -22.46875,-20.313 -16.5,26.188 -5.15625,-5.063 16.46875,-18.531 1.3125,-10.375 -25.0625,-14.25 -15.71875,20.5 -4.625,-4.563 14.28125,-18.968 -22.03125,-14.25 -11.90625,13.875 -29.34375,-28.907 c 2.23999,-6.835 3.2508,-13.209 3.09375,-19.25 15.97619,-7.516 33.80167,-11.75 52.625,-11.75 z m -93.90625,70.656 32.375,28.875 -25.125,37.688 c 0,0 57.047,78.66 55.75,79.094 -0.48032,0.16 -2.38749,11.749 -4.59375,26.218 -51.09069,-15.265 -88.34375,-62.636 -88.34375,-118.687 0,-17.522 3.62376,-34.203 10.1875,-49.313 10.5183,-0.663 18.55806,-3.445 19.75,-3.875 z m 55.46875,49.5 45.8125,40.844 -28.875,-19.906 -18.34375,-17 1.40625,-3.938 z m 27.28125,32.594 36.25,24.063 1.40625,1.25 0.34375,18.687 -4.34375,-17 -33.65625,-27 z m 77.65625,14.688 c -7.57615,0 -13.75,6.174 -13.75,13.75 0,7.576 6.17385,13.75 13.75,13.75 7.57615,0 13.75,-6.174 13.75,-13.75 0,-7.576 -6.17385,-13.75 -13.75,-13.75 z m 0,3 c 5.95483,0 10.75,4.795 10.75,10.75 0,5.955 -4.79517,10.75 -10.75,10.75 -5.95483,0 -10.75,-4.795 -10.75,-10.75 0,-5.955 4.79517,-10.75 10.75,-10.75 z m -181.15625,40.687 23.71875,21.5 -6.78125,31.25 -30.4375,9.781 -23.71875,-21.468 6.78125,-31.282 30.4375,-9.781 z m 257.34375,0.656 23.6875,21.5 -6.75,31.25 -30.46875,9.782 -23.6875,-21.469 6.75,-31.281 30.46875,-9.782 z" id="path54" inkscape:connector-curvature="0"/>

</svg>